<?xml version="1.0" encoding="UTF-8"?>
<svg id="Layer_1" data-name="Layer 1" xmlns="http://www.w3.org/2000/svg" xmlns:xlink="http://www.w3.org/1999/xlink" viewBox="0 0 100 100">
  <defs>
    <style>
      .cls-1 {
        fill: #242424;
      }

      .cls-2 {
        fill: url(#New_Gradient_Swatch_copy_32-4);
      }

      .cls-3 {
        fill: url(#New_Gradient_Swatch_copy_32-2);
      }

      .cls-4 {
        fill: url(#New_Gradient_Swatch_copy_32-6);
      }

      .cls-5 {
        fill: url(#New_Gradient_Swatch_copy_32-3);
      }

      .cls-6 {
        fill: url(#New_Gradient_Swatch_copy_32-5);
      }

      .cls-7 {
        fill: url(#New_Gradient_Swatch_copy_32);
      }
    </style>
    <linearGradient id="New_Gradient_Swatch_copy_32" data-name="New Gradient Swatch copy 32" x1="49.61" y1="64.51" x2="66.94" y2="64.51" gradientUnits="userSpaceOnUse">
      <stop offset="0" stop-color="#c2902e"/>
      <stop offset="0" stop-color="#c59532"/>
      <stop offset=".09" stop-color="#dcbc53"/>
      <stop offset=".16" stop-color="#edd96b"/>
      <stop offset=".22" stop-color="#f8ea79"/>
      <stop offset=".27" stop-color="#fcf17f"/>
      <stop offset=".36" stop-color="#f7e977"/>
      <stop offset=".48" stop-color="#ecd661"/>
      <stop offset=".64" stop-color="#dab63e"/>
      <stop offset=".68" stop-color="#d5ad35"/>
      <stop offset=".77" stop-color="#d9b139"/>
      <stop offset=".88" stop-color="#e7bd47"/>
      <stop offset=".99" stop-color="#fdd25f"/>
      <stop offset="1" stop-color="#ffd461"/>
    </linearGradient>
    <linearGradient id="New_Gradient_Swatch_copy_32-2" data-name="New Gradient Swatch copy 32" x1="67.75" y1="55.03" x2="85.05" y2="55.03" xlink:href="#New_Gradient_Swatch_copy_32"/>
    <linearGradient id="New_Gradient_Swatch_copy_32-3" data-name="New Gradient Swatch copy 32" x1="18.32" y1="20.47" x2="66.48" y2="20.47" xlink:href="#New_Gradient_Swatch_copy_32"/>
    <linearGradient id="New_Gradient_Swatch_copy_32-4" data-name="New Gradient Swatch copy 32" x1="35.3" y1="32.52" x2="83.48" y2="32.52" xlink:href="#New_Gradient_Swatch_copy_32"/>
    <linearGradient id="New_Gradient_Swatch_copy_32-5" data-name="New Gradient Swatch copy 32" x1="14.95" y1="55.44" x2="34.17" y2="55.44" xlink:href="#New_Gradient_Swatch_copy_32"/>
    <linearGradient id="New_Gradient_Swatch_copy_32-6" data-name="New Gradient Swatch copy 32" x1="34.82" y1="64.63" x2="48.99" y2="64.63" xlink:href="#New_Gradient_Swatch_copy_32"/>
  </defs>
  <rect class="cls-1" width="100" height="100"/>
  <g>
    <g>
      <polyline class="cls-7" points="66.94 39.02 61.98 41.61 61.95 73.98 56.64 76.75 56.68 44.39 49.61 48.08 51.71 53.37 51.67 90 66.89 82.04 66.94 39.02"/>
      <polyline class="cls-3" points="85.05 29.54 67.75 38.6 69.84 43.89 69.82 64.33 80.06 58.97 80.06 64.5 69.81 69.86 69.8 80.52 85.01 72.56 85.03 45.73 74.79 51.08 74.8 45.62 85.04 40.27 85.05 29.54"/>
    </g>
    <g>
      <polyline class="cls-5" points="66.48 18.97 50.25 10 47.19 13.66 18.32 28.37 22.97 30.94 35.72 24.44 45.33 29.75 53.73 25.47 44.12 20.16 48.42 17.97 58.03 23.28 66.48 18.97"/>
      <path class="cls-2" d="m59.21,30.51l6.19-3.16,4.97,2.75-6.19,3.16-4.97-2.75m24.27-2.14l-16.24-8.98-3.07,3.66-28.86,14.71,4.65,2.57,10.86-5.54,4.97,2.75-10.86,5.54,4.65,2.57,33.9-17.28"/>
    </g>
    <g>
      <polyline class="cls-6" points="34.17 38.89 14.95 28.26 16.66 35.71 16.62 72.13 20.67 74.37 20.71 41.48 23.37 42.95 23.33 75.84 27.39 78.09 27.42 45.19 30.1 46.67 30.06 79.57 34.12 82.61 34.17 38.89"/>
      <path class="cls-4" d="m40.56,74.53l.02-21.99,4.34,2.4-.02,21.99-4.34-2.4m8.43-27.45l-14.17-7.83,1.71,6.65-.04,37.22,12.45,6.88.05-42.92"/>
    </g>
  </g>
</svg>